<svg xmlns="http://www.w3.org/2000/svg" viewBox="0 0 512 512" role="img" aria-label="Forge Town house icon">
  <defs>
    <linearGradient id="bg" x1="86" y1="48" x2="426" y2="464" gradientUnits="userSpaceOnUse">
      <stop stop-color="#fffaf3"/>
      <stop offset="1" stop-color="#f5eadc"/>
    </linearGradient>
    <linearGradient id="fire" x1="236" y1="228" x2="236" y2="332" gradientUnits="userSpaceOnUse">
      <stop stop-color="#ffe4a5"/>
      <stop offset="0.48" stop-color="#ff9c40"/>
      <stop offset="1" stop-color="#df5f2d"/>
    </linearGradient>
    <filter id="shadow" x="48" y="54" width="416" height="414" color-interpolation-filters="sRGB" filterUnits="userSpaceOnUse">
      <feDropShadow dx="0" dy="18" flood-color="#6f4a2c" flood-opacity="0.18" stdDeviation="18"/>
    </filter>
  </defs>
  <rect width="512" height="512" rx="112" fill="url(#bg)"/>
  <circle cx="254" cy="342" r="124" fill="#f2dfcb"/>
  <path d="M111 331c80 30 210 31 292 0" fill="none" stroke="#e9d2bd" stroke-linecap="round" stroke-width="18"/>
  <g filter="url(#shadow)">
    <path d="M154 215 256 153l102 62v139H154V215Z" fill="#f9b36b" stroke="#c7612f" stroke-linejoin="round" stroke-width="16"/>
    <path d="M154 215 256 153l102 62-102 62-102-62Z" fill="#ffd39a" stroke="#c7612f" stroke-linejoin="round" stroke-width="16"/>
    <path d="M154 215v139l102 60V277L154 215Z" fill="#ef8a45" stroke="#c7612f" stroke-linejoin="round" stroke-width="16"/>
    <path d="M358 215v139l-102 60V277l102-62Z" fill="#f6a85b" stroke="#c7612f" stroke-linejoin="round" stroke-width="16"/>
    <path d="M286 138h48v98l-48 29V138Z" fill="#f9b36b" stroke="#c7612f" stroke-linejoin="round" stroke-width="14"/>
    <path d="M286 138 310 124l24 14-24 14-24-14Z" fill="#ffd39a" stroke="#c7612f" stroke-linejoin="round" stroke-width="14"/>
    <path d="M201 298c0-33 24-61 55-61s55 28 55 61v82l-55 34-55-34v-82Z" fill="#fff2dc" stroke="#c7612f" stroke-linejoin="round" stroke-width="14"/>
    <path d="M237 325c-14-23 8-39 16-62 21 22 45 39 27 75-9 19-32 26-48 13 15-4 18-15 5-26Z" fill="url(#fire)"/>
    <circle cx="256" cy="307" r="50" fill="none" stroke="#fff7e8" stroke-width="8"/>
  </g>
</svg>
